<?xml version="1.0" encoding="UTF-8"?>
<svg width="456" height="456" viewBox="0 0 456 456" xmlns="http://www.w3.org/2000/svg">
	<!-- Properly centered LoQA text -->
	<g transform="translate(228, 228) scale(1.8) translate(-62, -25)" fill="#ffffff" stroke="#ffffff" stroke-width="1.5" stroke-linejoin="round">
		<path d="M0 45.26L0 9.47L4.74 9.47L4.74 41.04L22.36 41.04L22.36 45.26L0 45.26Z"/>
		<path d="M25.81 32.30Q25.81 25.10 29.81 21.63Q33.15 18.75 37.96 18.75Q43.31 18.75 46.70 22.25Q50.10 25.76 50.10 31.93Q50.10 36.94 48.60 39.81Q47.09 42.68 44.23 44.26Q41.36 45.85 37.96 45.85Q32.52 45.85 29.16 42.36Q25.81 38.87 25.81 32.30M30.32 32.30Q30.32 37.28 32.50 39.76Q34.67 42.24 37.96 42.24Q41.24 42.24 43.41 39.75Q45.58 37.26 45.58 32.15Q45.58 27.34 43.40 24.87Q41.21 22.39 37.96 22.39Q34.67 22.39 32.50 24.85Q30.32 27.32 30.32 32.30Z"/>
		<path d="M82.93 41.43Q86.23 43.70 89.01 44.75L87.62 48.05Q83.76 46.66 79.93 43.65Q75.95 45.87 71.14 45.87Q66.28 45.87 62.33 43.53Q58.37 41.19 56.24 36.94Q54.10 32.69 54.10 27.37Q54.10 22.07 56.25 17.72Q58.40 13.38 62.37 11.11Q66.33 8.84 71.24 8.84Q76.20 8.84 80.18 11.19Q84.16 13.55 86.24 17.79Q88.33 22.02 88.33 27.34Q88.33 31.76 86.99 35.29Q85.64 38.82 82.93 41.43M72.51 35.38Q76.61 36.52 79.27 38.79Q83.45 34.99 83.45 27.34Q83.45 23.00 81.97 19.75Q80.49 16.50 77.65 14.71Q74.80 12.92 71.26 12.92Q65.97 12.92 62.48 16.54Q58.98 20.17 58.98 27.37Q58.98 34.35 62.44 38.09Q65.89 41.82 71.26 41.82Q73.80 41.82 76.05 40.87Q73.83 39.43 71.36 38.82L72.51 35.38Z"/>
		<path d="M90.77 45.26L104.52 9.47L109.62 9.47L124.27 45.26L118.87 45.26L114.70 34.42L99.73 34.42L95.80 45.26L90.77 45.26M101.10 30.57L113.23 30.57L109.50 20.65Q107.79 16.14 106.96 13.23Q106.27 16.67 105.03 20.07L101.10 30.57Z"/>
	</g>
</svg>